<?xml version="1.0" encoding="utf-8"?>
<!-- Generator: Adobe Illustrator 22.0.1, SVG Export Plug-In . SVG Version: 6.00 Build 0)  -->
<svg version="1.1" id="artwork" xmlns="http://www.w3.org/2000/svg" xmlns:xlink="http://www.w3.org/1999/xlink" x="0px" y="0px"
	 viewBox="0 0 306.144 322.866" enable-background="new 0 0 306.144 322.866" xml:space="preserve">
<g>
	<g>
		<rect fill="none" width="306.144" height="322.866"/>
	</g>
	<g>
		<g>
			<g>
				<g>
					<path fill="#FFFFFF" d="M149.932,63.446c-2.257,1.706-5.601,4.645-9.625,8.869c-5.872,6.167-11.539,14.898-12.375,19.065
						c-1.682,8.393-2.181,18.286,0.286,28.606c0.622,2.601,2.315,3.888,4.38,3.888h40.966c2.068,0,3.759-1.288,4.383-3.889
						c2.471-10.328,1.971-20.221,0.284-28.604v-0.002c-0.832-4.163-6.498-12.894-12.373-19.064
						c-4.009-4.212-7.353-7.136-9.602-8.854C154.231,61.913,152.076,61.826,149.932,63.446z"/>
				</g>
				<g>
					<path fill="#FFFFFF" d="M96.106,122.613c-22.133,0-30.421,19.503-30.421,32.908c0,16.797,11.906,32.46,20.372,36.192
						c2.749,1.212,4.258,0.461,3.331-2.709c-1.743-5.961-1.444-12.431,1.336-16.771c4.115-6.425,8.999-7.16,14.853-7.666
						c2.573-0.222,3.55-1.035,3.55-3.594v-12.474c0-3.868,0.538-4.74,2.812-7.014c0,0,7.538-7.539,9.403-9.404
						c1.704-1.704,1-3.002-0.368-3.826C117.272,126.025,105.997,122.613,96.106,122.613z"/>
				</g>
				<g>
					<path fill="#FFFFFF" d="M185.146,128.255c-1.368,0.825-2.073,2.122-0.368,3.826c1.865,1.865,9.403,9.404,9.403,9.404
						c2.274,2.274,2.811,3.146,2.811,7.014v12.474c0,2.558,0.977,3.371,3.55,3.594c5.855,0.506,10.738,1.241,14.853,7.666
						c2.78,4.34,3.079,10.809,1.336,16.771c-0.927,3.171,0.582,3.921,3.331,2.709c8.465-3.732,20.372-19.395,20.372-36.192
						c0-13.405-8.288-32.908-30.421-32.908C200.122,122.613,188.847,126.025,185.146,128.255z"/>
				</g>
				<g>
					<path fill="#FFFFFF" d="M88.598,216.445c-22.006,1.389-37.572-17.146-37.572-35.323c0-6.911,1.004-10.553,2.84-14.393
						c1.566-3.276,3.364-5.497,4.439-5.492c1.057,0.003,1.376,1.547,1.548,2.456c4.262,22.276,19.977,35.206,30.674,35.381
						c3.137,0.052,6.953-0.669,7.293-2.193c0.487-2.183-3.264-6.84-3.264-15.578c0-3.538,1.555-9.951,11.349-10.337
						c8.632-0.342,12.823,7.736,12.823,14.882C118.727,200.681,107.811,215.23,88.598,216.445z"/>
				</g>
				<path fill="#FFFFFF" d="M59.801,148.265c1.756-13.012,9.097-22.679,17.249-27.312c12.996-7.384,25.871-4.587,34.9-2.55
					c1.339,0.303,2.427,0.11,2.845-0.705c0.34-0.672,0.1-1.436-0.959-2.55c-4.246-4.471-14.013-14.187-15.236-15.208
					c-2.973-2.479-7.885-3.95-11.727-3.95c-21.957,0-35.849,16.698-35.849,35.286c0,4.865,1.361,11.153,2.855,14.687
					c1.388,3.279,2.926,6.194,4.145,6.194C59.432,152.158,59.543,150.173,59.801,148.265z"/>
				<path fill="#FFFFFF" d="M186.002,112.418c-0.616-0.468-0.755-1.395-0.615-2.802c0.93-9.333-0.016-18.513-1.882-22.821
					c-2.399-5.542-8.139-13.63-12.627-18.329c-5.824-6.1-7.918-7.779-10.6-9.813c-0.672-0.509-2.12-1.329-2.12-2.007
					c0-0.75,1.116-1.527,2.466-2.152c2.517-1.168,6.208-2.757,12.948-3.337c8.016-0.689,19.439,1.04,28.065,12.063
					c4.868,6.222,5.549,13.749,5.549,18.842c0,6.061-0.971,11.515-3.852,14.662c-4.268,4.66-13.409,13.758-14.611,14.839
					C188.14,112.087,186.81,113.028,186.002,112.418z"/>
				<path fill="#FFFFFF" d="M120.143,112.418c0.616-0.468,0.755-1.395,0.615-2.802c-0.93-9.333,0.016-18.513,1.882-22.821
					c2.399-5.542,8.14-13.63,12.627-18.329c5.824-6.1,7.918-7.779,10.6-9.813c0.672-0.509,2.12-1.329,2.12-2.007
					c0-0.75-1.116-1.527-2.466-2.152c-2.517-1.168-6.208-2.757-12.948-3.337c-8.016-0.689-19.439,1.04-28.065,12.063
					c-4.868,6.222-5.549,13.749-5.549,18.842c0,6.061,0.97,11.515,3.852,14.662c4.268,4.66,13.409,13.758,14.611,14.839
					C118.005,112.087,119.336,113.028,120.143,112.418z"/>
				<path fill="#FFFFFF" d="M217.548,216.445c22.006,1.389,37.572-17.146,37.572-35.323c0-6.911-1.004-10.553-2.84-14.393
					c-1.566-3.276-3.364-5.497-4.439-5.492c-1.057,0.003-1.376,1.547-1.548,2.456c-4.262,22.276-19.977,35.206-30.674,35.381
					c-3.136,0.052-6.953-0.669-7.293-2.193c-0.487-2.183,3.264-6.84,3.264-15.578c0-3.538-1.555-9.951-11.349-10.337
					c-8.632-0.342-12.823,7.736-12.823,14.882C187.418,200.681,198.335,215.23,217.548,216.445z"/>
				<path fill="#FFFFFF" d="M246.344,148.265c-1.756-13.012-9.097-22.679-17.249-27.312c-12.995-7.384-25.871-4.587-34.9-2.55
					c-1.339,0.303-2.427,0.11-2.845-0.705c-0.34-0.672-0.1-1.436,0.959-2.55c4.245-4.471,14.013-14.187,15.236-15.208
					c2.973-2.479,7.885-3.95,11.727-3.95c21.957,0,35.849,16.698,35.849,35.286c0,4.865-1.361,11.153-2.855,14.687
					c-1.388,3.279-2.925,6.194-4.145,6.194C246.713,152.158,246.603,150.173,246.344,148.265z"/>
				<path fill="#FFFFFF" d="M170.224,223.241c4.937-3.72,7.603-6.218,11.726-10.438c1.902-1.946,4.084-2.153,6.369,0.049
					c3.176,3.067,7.084,5.573,12.799,6.045c2.292,0.19,3.516-0.543,5.133,0.245c0.824,0.399,1.609,1.506,1.666,3.401
					c0.229,7.55-3.38,16.295-14.315,18.247c-7.087,1.266-14.209-0.881-17.728-4.181c-2.409-2.255-5.066-4.768-6.61-6.853
					C167.651,227.582,167.725,225.121,170.224,223.241z"/>
				<path fill="#FFFFFF" d="M135.921,223.241c-4.937-3.72-7.603-6.218-11.726-10.438c-1.901-1.946-4.084-2.153-6.369,0.049
					c-3.176,3.067-7.084,5.573-12.799,6.045c-2.292,0.19-3.515-0.543-5.133,0.245c-0.824,0.399-1.609,1.506-1.666,3.401
					c-0.229,7.55,3.38,16.295,14.315,18.247c7.087,1.266,14.209-0.881,17.728-4.181c2.409-2.255,5.066-4.768,6.61-6.853
					C138.495,227.582,138.421,225.121,135.921,223.241z"/>
				<g>
					<path fill="#FFFFFF" d="M153.073,231.913c2.818,0,5.023-1.718,6.93-1.966c1.613-0.21,2.653,0.29,4.13,1.77
						c2.141,2.145,5.225,5.501,7.274,8.015c1.478,1.813,3.483,4.839,0.73,11.892c-3.379,8.664-15.51,20.086-19.065,20.086
						s-15.686-11.422-19.065-20.086c-2.752-7.053-0.748-10.079,0.73-11.892c2.049-2.514,5.133-5.87,7.274-8.015
						c1.477-1.48,2.517-1.98,4.13-1.77C148.049,230.195,150.255,231.913,153.073,231.913z"/>
				</g>
				<g>
					<path fill="#FFFFFF" d="M152.488,146.534c-1.304,0-2.836,0.72-3.311,1.795c0.592-0.376,1.51-0.366,1.796,0.229
						c0.21,0.437-0.064,0.799-0.169,0.937c-0.243,0.321,0.848,0.791,1.729,0.659c1.139-0.171,1.976-0.811,2.107-1.771
						C154.751,147.581,154.327,146.534,152.488,146.534z"/>
					<path fill="#FFFFFF" d="M190.89,144.627c-1.099-1.102-9.096-9.096-12.699-12.702c-2.912-2.911-3.845-3.506-7.65-3.506h-34.936
						c-3.806,0-4.738,0.594-7.65,3.506c-3.603,3.606-11.6,11.6-12.699,12.702c-1.435,1.432-1.557,2.002-1.557,4.456v13.222
						c0,2.112,0.816,3.216,2.189,4.152c5.152,3.51,8.97,9.707,8.97,18.693l0,0c0,5.472-1.784,9.676-2.882,13.255
						c-0.596,1.945-0.347,3.472,1.456,6.048c2.15,3.071,12.257,15.314,25.102,20.928c1.91,0.835,3.162,1.34,4.539,1.34
						c1.377,0,2.631-0.506,4.54-1.34c12.846-5.613,22.952-17.857,25.102-20.928c1.804-2.576,2.053-4.103,1.456-6.048
						c-1.098-3.58-2.882-7.783-2.882-13.255c0-8.986,3.818-15.183,8.97-18.693c1.373-0.935,2.189-2.04,2.189-4.152v-13.222
						C192.448,146.629,192.325,146.06,190.89,144.627z M177.607,178.398c-0.443,0.275-2.453-1.286-3.391-0.684
						c-0.81,0.523,0.886,2.505,1.52,5.761c1.118,5.738-5.782,16.507-16.188,24.197c-3.688,2.725-5.663,3.432-6.618,3.432
						c-0.932,0-2.921-0.873-6.618-3.432c-6.677-4.622-14.236-11.33-13.496-16.649c0.207-1.491,0.895-2.676-0.736-2.384
						c-0.839,0.15-2.306,1.01-2.572,0.996c-0.243-0.013-0.449-0.326-0.536-0.646c-0.97-3.506,1.277-9.921,10.859-12.501
						c7.792-2.098,10.57-4.268,10.57-5.023c0-0.415-0.573-1.053-1.037-1.399c-2.549-1.905-5.731-0.875-9.434,0.228
						c-2.588,0.77-4.212,0.094-4.755-0.777c-0.541-0.87-0.183-1.854-0.183-1.854c-1.257,0.058-2.798,0.021-3.568-0.04
						c-2.518-0.232-4.606-1.048-6.099-2.617c-2.251-2.365-2.09-6.237,0.087-8.273c1.694-1.585,1.999-0.243,2.42,1.197
						c0.835,2.869,3.16,6.081,7.905,6.081c3.184,0,4.698-1.325,7.169-1.824c4.373-0.885,5.217,0.235,5.618-0.585
						c0.222-0.457-0.354-1.638-1.533-2.303c-1.722-0.969-3.698-1.114-6.247-0.984c-1.01,0.051-2.539,0.121-2.934,1.7
						c-0.185,0.72-0.443,1.501-0.696,1.553c-0.736,0.072-1.251-1.153-2.007-2.761c-2.851-0.722-3.27-5.783-4.681-8.137
						c-1.204-2.012-0.882-3.452,1.385-3.883c2.206-0.421,7.891-0.524,12.37-0.562c2.797-0.022,3.69-1.138,4.88-1.88
						c0.952-0.588,2.292-1.179,3.879-1.556c1.582-0.378,2.537-0.463,4.589-0.556c1.028-0.031,1.095-0.642,1.979-1.808
						c1.148-1.507,2.468-2.67,4.495-2.883c0.875-0.087,0.143,1.835,0.306,2.772c0.243,1.418,1.213,0.63,2.075-0.404
						c2.154-2.587,3.927-3.976,6.089-3.651c0.141,0.021,0.347,0.05,0.442,0.254c0.489,1.054,1.189,5.694-0.337,10.123
						c-0.295,0.862-0.699,1.898-0.863,2.413c-0.168,0.515,0.22,2.455,0.38,3.097c1.226,4.899,3.279,7.291,5.108,13.275
						C179.128,171.723,178.652,177.749,177.607,178.398z"/>
				</g>
			</g>
		</g>
	</g>
</g>
</svg>
